# xmcd
#
# Track frame offsets: 
#        150
#        25818
#        43490
#        60033
#        80991
#        105787
#        137595
#        154034
#        179020
#        201670
#        218744
#        231549
#        258374
#        284852
#
# Disc length: 4070 seconds
#
# Revision: 1
# Processed by: cddbd v1.5.2PL0 Copyright (c) Steve Scherf et al.
# Submitted via: ExactAudioCopyFreeDBPlugin 1.0
#
DISCID=d40fe40e
DTITLE=Various Artist - Desert Blues 3, Entre Dunes and Savanes, cd.1
DYEAR=2008
DGENRE=Folk
TTITLE0=Djélimady Tounkara - Fanta Bourama
TTITLE1=Idrissa Soumaoro - M´ba den ou
TTITLE2=Souad Massi - Raoui
TTITLE3=Khaled - Wahrane, wahrane
TTITLE4=Tiris - El Nabi
TTITLE5=Boubacar Traoré and Regis Gizavo - Kanou
TTITLE6=Markus James - Dream after dream
TTITLE7=Bako Dagnon - Lassidan
TTITLE8=Fula Flute - Keme Bourema
TTITLE9=Gigi - Bati, bati
TTITLE10=Cherif M´Baw - Baayo
TTITLE11=Abdoulaye Alhassane Touré - Humaisa
TTITLE12=Roki Traoré and Kronos Quartet - Bownboi
TTITLE13=Toumani Diabaté and Ali Farka Touré - Al Ga Bani
EXTD=
EXTT0=
EXTT1=
EXTT2=
EXTT3=
EXTT4=
EXTT5=
EXTT6=
EXTT7=
EXTT8=
EXTT9=
EXTT10=
EXTT11=
EXTT12=
EXTT13=
PLAYORDER=
